# xmcd
#
# Track frame offsets: 
#        150
#        11333
#        21173
#        30019
#        40895
#        50945
#        59073
#        69995
#        78449
#        90292
#        98097
#        109007
#        118010
#        128225
#        138036
#        147018
#        156222
#        168299
#        179180
#        187732
#        195734
#        204028
#        214018
#        223909
#        234207
#
# Disc length: 3265 seconds
#
# Revision: 7
# Processed by: cddbd v1.5.2PL0 Copyright (c) Steve Scherf et al.
# Submitted via: ExactAudioCopy v0.99pb3
#
DISCID=4e0cbf19
DTITLE=Johnny Cash - The Very Best of Johnny Cash - Disc 2 (The Countr
DTITLE=y Boy)
DYEAR=1996
DGENRE=Country
TTITLE0=Oh, Lonesome Me
TTITLE1=Rock Island Line
TTITLE2=Two Timin' Woman
TTITLE3=Wide Open Road
TTITLE4=Hey! Porter
TTITLE5=The Wreck Of The Old '97
TTITLE6=Belshazar
TTITLE7=Country Boy
TTITLE8=Doin' My Time
TTITLE9=If The Good Lord's Willing
TTITLE10=I Heard That Lonesome Whistle Cry
TTITLE11=Remember Me  (I'm The One Who Loves You)
TTITLE12=I Was There When It Happened
TTITLE13=Born To Lose
TTITLE14=Life Goes On
TTITLE15=Blue Train
TTITLE16=Goodnight Irene
TTITLE17=Fool's Hall Of Fame
TTITLE18=I Forgot To Remember To Forget
TTITLE19=I Can't Help It  (If I'm Still In Love With You)
TTITLE20=Always Alone
TTITLE21=I Could Never Be Ashamed Of You
TTITLE22=The Story Of A Broken Heart
TTITLE23=You Win Again
TTITLE24=I Thought You'd Like To Know
EXTD=(c)1996 Charly Schallplatten GmbH Germany\nCDCP 8241-2\nupc 40176
EXTD=92300420 YEAR: 2001 ID3G: 2
EXTT0=
EXTT1=
EXTT2=
EXTT3=
EXTT4=
EXTT5=
EXTT6=
EXTT7=
EXTT8=
EXTT9=
EXTT10=
EXTT11=
EXTT12=
EXTT13=
EXTT14=
EXTT15=
EXTT16=
EXTT17=
EXTT18=
EXTT19=
EXTT20=
EXTT21=
EXTT22=
EXTT23=
EXTT24=
PLAYORDER=
